# xmcd CD database file
#
# Track frame offsets:
#	150
#	28125
#	52249
#	77619
#	104912
#	121553
#	141982
#	166027
#	187710
#	207922
#
# Disc length: 3105 seconds
#
# Revision: 0
# Processed by: cddbd v1.5.1PL2 Copyright (c) Steve Scherf et al.
# Submitted via: CDex 1.51
#
DISCID=840c1f0a
DTITLE=India - Oro Salsero [CD 2)
DYEAR=2003
DGENRE=Salsa
TTITLE0=Vivir Lo Nuestro
TTITLE1=Sola
TTITLE2=Te Dare Dulzura
TTITLE3=Si Estuvieras Aqui
TTITLE4=Que Te Perdi
TTITLE5=Esa Mujer
TTITLE6=Mi Mayor Venganza
TTITLE7=Hielo
TTITLE8=Burlada Inocencia
TTITLE9=Si Tu Eres Mi Hombre
EXTD=YEAR: 2003
EXTT0=
EXTT1=
EXTT2=
EXTT3=
EXTT4=
EXTT5=
EXTT6=
EXTT7=
EXTT8=
EXTT9=
PLAYORDER=
